<svg xmlns="http://www.w3.org/2000/svg" viewBox="0 0 160 180" role="img" aria-labelledby="title desc">
  <title id="title">Lord Ganesh idol</title>
  <desc id="desc">Small golden and saffron Lord Ganesh idol illustration.</desc>
  <defs>
    <radialGradient id="halo" cx="50%" cy="38%" r="58%">
      <stop offset="0" stop-color="#fff1b8"/>
      <stop offset="0.48" stop-color="#ffc35a"/>
      <stop offset="1" stop-color="#f58b20"/>
    </radialGradient>
    <linearGradient id="body" x1="20%" x2="80%" y1="0%" y2="100%">
      <stop offset="0" stop-color="#ffe7a3"/>
      <stop offset="0.45" stop-color="#f7a429"/>
      <stop offset="1" stop-color="#c91f0b"/>
    </linearGradient>
    <filter id="shadow" x="-30%" y="-30%" width="160%" height="160%">
      <feDropShadow dx="0" dy="7" stdDeviation="6" flood-color="#4a0401" flood-opacity="0.35"/>
    </filter>
  </defs>
  <circle cx="80" cy="76" r="62" fill="url(#halo)" opacity="0.95"/>
  <g filter="url(#shadow)">
    <path d="M44 61c1-24 17-39 36-39s35 15 36 39c11 4 20 15 20 28 0 17-13 30-29 30-6 0-12-2-17-5v20h21c7 0 13 6 13 13v8H36v-8c0-7 6-13 13-13h21v-20c-5 3-11 5-17 5-16 0-29-13-29-30 0-13 9-24 20-28z" fill="url(#body)"/>
    <path d="M59 72c-13-6-25 1-26 14-1 11 7 19 18 19 11 0 20-8 24-19" fill="#ffcf70"/>
    <path d="M101 72c13-6 25 1 26 14 1 11-7 19-18 19-11 0-20-8-24-19" fill="#ffcf70"/>
    <path d="M76 72c14 11 20 22 18 35-2 13-13 21-25 20 15-9 13-24 5-34-6-8-7-16 2-21z" fill="#8b0f08" opacity="0.85"/>
    <circle cx="63" cy="72" r="5" fill="#5a0702"/>
    <circle cx="98" cy="72" r="5" fill="#5a0702"/>
    <path d="M70 54c6-8 14-8 20 0" fill="none" stroke="#5a0702" stroke-width="5" stroke-linecap="round"/>
    <path d="M63 36h34l-8-17-9 13-9-13z" fill="#ffd98b" stroke="#8b0f08" stroke-width="4" stroke-linejoin="round"/>
    <path d="M48 143h64" stroke="#ffe7a3" stroke-width="8" stroke-linecap="round"/>
  </g>
</svg>
